<?xml version="1.0" encoding="utf-8"?>
<!-- created with bpmn-js / http://bpmn.io -->
<!DOCTYPE svg PUBLIC "-//W3C//DTD SVG 1.1//EN" "http://www.w3.org/Graphics/SVG/1.1/DTD/svg11.dtd">
<svg xmlns="http://www.w3.org/2000/svg" width="453" height="229"
     viewBox="126 58 453 229" version="1.1">
    <defs>
        <pattern id="djs-grid-pattern-338697" width="10" height="10" patternUnits="userSpaceOnUse">
            <circle cx="0.5" cy="0.5" r="0.5" style="fill: rgb(204, 204, 204);"/>
        </pattern>
    </defs>
    <rect width="1000" height="1000" fill="white"/>
    <g class="djs-group">
        <g class="djs-element djs-shape selected" data-element-id="StartEvent_1" style="display: block;"
           transform="matrix(1 0 0 1 150 100)">
            <g class="djs-visual">
                <circle cx="18" cy="18" r="18"
                        style="stroke-linecap: round; stroke-linejoin: round; stroke: rgb(34, 36, 42); stroke-width: 2px; fill: white; fill-opacity: 0.95;"/>
            </g>
            <rect class="djs-hit djs-hit-all" x="0" y="0" width="36" height="36"
                  style="fill: none; stroke-opacity: 0; stroke: white; stroke-width: 15px;"/>
            <circle cx="18" cy="18" r="23" class="djs-outline" style="fill: none;"/>
        </g>
    </g>
    <g class="djs-group">
        <g class="djs-element djs-shape selected" data-element-id="StartEvent_1_label" style="display: block;"
           transform="matrix(1 0 0 1 131 143)">
            <g class="djs-visual">
                <text lineHeight="1.2" class="djs-label"
                      style="font-family: Arial, sans-serif; font-size: 11px; font-weight: normal; fill: rgb(34, 36, 42);">
                    <tspan x="4.59765625" y="9.899999999999999">Dienstreisen-</tspan>
                    <tspan x="0" y="23.099999999999998">antrag erhalten</tspan>
                </text>
            </g>
            <rect class="djs-hit djs-hit-all" x="0" y="0" width="74" height="27"
                  style="fill: none; stroke-opacity: 0; stroke: white; stroke-width: 15px;"/>
            <rect x="-5" y="-5" rx="4" width="84" height="37" class="djs-outline" style="fill: none;"/>
        </g>
    </g>
    <g class="djs-group">
        <g class="djs-element djs-shape selected" data-element-id="Activity_0oc6x9a" style="display: block;"
           transform="matrix(1 0 0 1 260 78)">
            <g class="djs-visual">
                <rect x="0" y="0" width="100" height="80" rx="10" ry="10"
                      style="stroke-linecap: round; stroke-linejoin: round; stroke: rgb(34, 36, 42); stroke-width: 2px; fill: white; fill-opacity: 0.95;"/>
                <text lineHeight="1.2" class="djs-label"
                      style="font-family: Arial, sans-serif; font-size: 12px; font-weight: normal; fill: rgb(34, 36, 42);">
                    <tspan x="17.98046875" y="36.4">Über Antrag</tspan>
                    <tspan x="17.640625" y="50.8">entscheiden</tspan>
                </text>
                <path d="m 15,12 c 0.909,-0.845 1.594,-2.049 1.594,-3.385 0,-2.554 -1.805,-4.62199999 -4.357,-4.62199999 -2.55199998,0 -4.28799998,2.06799999 -4.28799998,4.62199999 0,1.348 0.974,2.562 1.89599998,3.405 -0.52899998,0.187 -5.669,2.097 -5.794,4.7560005 v 6.718 h 17 v -6.718 c 0,-2.2980005 -5.5279996,-4.5950005 -6.0509996,-4.7760005 zm -8,6 l 0,5.5 m 11,0 l 0,-5"
                      style="fill: white; stroke-linecap: round; stroke-linejoin: round; stroke: rgb(34, 36, 42); stroke-width: 0.5px;"/>
                <path d="m 15,12 m 2.162,1.009 c 0,2.4470005 -2.158,4.4310005 -4.821,4.4310005 -2.66499998,0 -4.822,-1.981 -4.822,-4.4310005 "
                      style="fill: white; stroke-linecap: round; stroke-linejoin: round; stroke: rgb(34, 36, 42); stroke-width: 0.5px;"/>
                <path d="m 15,12 m -6.9,-3.80 c 0,0 2.25099998,-2.358 4.27399998,-1.177 2.024,1.181 4.221,1.537 4.124,0.965 -0.098,-0.57 -0.117,-3.79099999 -4.191,-4.13599999 -3.57499998,0.001 -4.20799998,3.36699999 -4.20699998,4.34799999 z"
                      style="fill: rgb(34, 36, 42); stroke-linecap: round; stroke-linejoin: round; stroke: rgb(34, 36, 42); stroke-width: 0.5px;"/>
            </g>
            <rect class="djs-hit djs-hit-all" x="0" y="0" width="100" height="80"
                  style="fill: none; stroke-opacity: 0; stroke: white; stroke-width: 15px;"/>
            <rect x="-5" y="-5" rx="14" width="110" height="90" class="djs-outline" style="fill: none;"/>
        </g>
    </g>
    <g class="djs-group">
        <g class="djs-element djs-shape selected" data-element-id="Gateway_0ldszfm" style="display: block;"
           transform="matrix(1 0 0 1 415 93)">
            <g class="djs-visual">
                <polygon points="25,0 50,25 25,50 0,25"
                         style="stroke-linecap: round; stroke-linejoin: round; stroke: rgb(34, 36, 42); stroke-width: 2px; fill: white; fill-opacity: 0.95;"/>
                <path d="m 16,15 7.42857142857143,9.714285714285715 -7.42857142857143,9.714285714285715 3.428571428571429,0 5.714285714285715,-7.464228571428572 5.714285714285715,7.464228571428572 3.428571428571429,0 -7.42857142857143,-9.714285714285715 7.42857142857143,-9.714285714285715 -3.428571428571429,0 -5.714285714285715,7.464228571428572 -5.714285714285715,-7.464228571428572 -3.428571428571429,0 z"
                      style="fill: rgb(34, 36, 42); stroke-linecap: round; stroke-linejoin: round; stroke: rgb(34, 36, 42); stroke-width: 1px;"/>
            </g>
            <rect class="djs-hit djs-hit-all" x="0" y="0" width="50" height="50"
                  style="fill: none; stroke-opacity: 0; stroke: white; stroke-width: 15px;"/>
            <rect x="2" y="2" rx="4" width="46" height="46" class="djs-outline"
                  style="transform-box: fill-box; transform: rotate(45deg); transform-origin: center center; fill: none;"/>
        </g>
    </g>
    <g class="djs-group">
        <g class="djs-element djs-shape selected" data-element-id="Gateway_0ldszfm_label" style="display: block;"
           transform="matrix(1 0 0 1 411 63)">
            <g class="djs-visual">
                <text lineHeight="1.2" class="djs-label"
                      style="font-family: Arial, sans-serif; font-size: 11px; font-weight: normal; fill: rgb(34, 36, 42);">
                    <tspan x="12.547119140625" y="9.899999999999999">Antrag</tspan>
                    <tspan x="0" y="23.099999999999998">genehmigt?</tspan>
                </text>
            </g>
            <rect class="djs-hit djs-hit-all" x="0" y="0" width="58" height="27"
                  style="fill: none; stroke-opacity: 0; stroke: white; stroke-width: 15px;"/>
            <rect x="-5" y="-5" rx="4" width="68" height="37" class="djs-outline" style="fill: none;"/>
        </g>
    </g>
    <g class="djs-group">
        <g class="djs-element djs-shape selected" data-element-id="Event_1kwiy2p" style="display: block;"
           transform="matrix(1 0 0 1 522 100)">
            <g class="djs-visual">
                <circle cx="18" cy="18" r="18"
                        style="stroke-linecap: round; stroke-linejoin: round; stroke: rgb(34, 36, 42); stroke-width: 4px; fill: white; fill-opacity: 0.95;"/>
            </g>
            <rect class="djs-hit djs-hit-all" x="0" y="0" width="36" height="36"
                  style="fill: none; stroke-opacity: 0; stroke: white; stroke-width: 15px;"/>
            <circle cx="18" cy="18" r="24" class="djs-outline" style="fill: none;"/>
        </g>
    </g>
    <g class="djs-group">
        <g class="djs-element djs-shape selected" data-element-id="Event_1kwiy2p_label" style="display: block;"
           transform="matrix(1 0 0 1 508 143)">
            <g class="djs-visual">
                <text lineHeight="1.2" class="djs-label"
                      style="font-family: Arial, sans-serif; font-size: 11px; font-weight: normal; fill: rgb(34, 36, 42);">
                    <tspan x="0" y="9.899999999999999">Antrag wurde</tspan>
                    <tspan x="7.019287109375" y="23.099999999999998">genehmigt</tspan>
                </text>
            </g>
            <rect class="djs-hit djs-hit-all" x="0" y="0" width="66" height="27"
                  style="fill: none; stroke-opacity: 0; stroke: white; stroke-width: 15px;"/>
            <rect x="-5" y="-5" rx="4" width="76" height="37" class="djs-outline" style="fill: none;"/>
        </g>
    </g>
    <g class="djs-group">
        <g class="djs-element djs-shape selected" data-element-id="Event_1no0yue" style="display: block;"
           transform="matrix(1 0 0 1 522 212)">
            <g class="djs-visual">
                <circle cx="18" cy="18" r="18"
                        style="stroke-linecap: round; stroke-linejoin: round; stroke: rgb(34, 36, 42); stroke-width: 4px; fill: white; fill-opacity: 0.95;"/>
            </g>
            <rect class="djs-hit djs-hit-all" x="0" y="0" width="36" height="36"
                  style="fill: none; stroke-opacity: 0; stroke: white; stroke-width: 15px;"/>
            <circle cx="18" cy="18" r="24" class="djs-outline" style="fill: none;"/>
        </g>
    </g>
    <g class="djs-group">
        <g class="djs-element djs-shape selected" data-element-id="Event_1no0yue_label" style="display: block;"
           transform="matrix(1 0 0 1 508 255)">
            <g class="djs-visual">
                <text lineHeight="1.2" class="djs-label"
                      style="font-family: Arial, sans-serif; font-size: 11px; font-weight: normal; fill: rgb(34, 36, 42);">
                    <tspan x="0" y="9.899999999999999">Antrag wurde</tspan>
                    <tspan x="8.542724609375" y="23.099999999999998">abgelehnt</tspan>
                </text>
            </g>
            <rect class="djs-hit djs-hit-all" x="0" y="0" width="66" height="27"
                  style="fill: none; stroke-opacity: 0; stroke: white; stroke-width: 15px;"/>
            <rect x="-5" y="-5" rx="4" width="76" height="37" class="djs-outline" style="fill: none;"/>
        </g>
    </g>
    <g class="djs-group">
        <g class="djs-element djs-connection selected" data-element-id="Flow_03ke35t" style="display: block;">
            <g class="djs-visual">
                <defs>
                    <marker id="marker-evxlo6v4sumnjsf92s6ft7s5t" viewBox="0 0 20 20" refX="11" refY="10"
                            markerWidth="10" markerHeight="10" orient="auto">
                        <path d="M 1 5 L 11 10 L 1 15 Z"
                              style="stroke-linecap: round; stroke-linejoin: round; stroke: rgb(34, 36, 42); stroke-width: 1px; fill: rgb(34, 36, 42);"/>
                    </marker>
                </defs>
                <path data-corner-radius="5"
                      style="fill: none; stroke-linecap: round; stroke-linejoin: round; stroke: rgb(34, 36, 42); stroke-width: 2px; marker-end: url('#marker-evxlo6v4sumnjsf92s6ft7s5t');"
                      d="M186,118L260,118"/>
            </g>
            <rect x="181" y="113" rx="4" width="84" height="10" class="djs-outline" style="fill: none;"/>
            <path d="M186,118L260,118" class="djs-hit djs-hit-stroke"
                  style="fill: none; stroke-opacity: 0; stroke: white; stroke-width: 15px;"/>
        </g>
    </g>
    <g class="djs-group">
        <g class="djs-element djs-connection selected" data-element-id="Flow_10zxdwm" style="display: block;">
            <g class="djs-visual">
                <defs>
                    <marker id="marker-ehi22cpnc42i0n7lfylwrpysb" viewBox="0 0 20 20" refX="11" refY="10"
                            markerWidth="10" markerHeight="10" orient="auto">
                        <path d="M 1 5 L 11 10 L 1 15 Z"
                              style="stroke-linecap: round; stroke-linejoin: round; stroke: rgb(34, 36, 42); stroke-width: 1px; fill: rgb(34, 36, 42);"/>
                    </marker>
                </defs>
                <path data-corner-radius="5"
                      style="fill: none; stroke-linecap: round; stroke-linejoin: round; stroke: rgb(34, 36, 42); stroke-width: 2px; marker-end: url('#marker-ehi22cpnc42i0n7lfylwrpysb');"
                      d="M360,118L415,118"/>
            </g>
            <rect x="355" y="113" rx="4" width="65" height="10" class="djs-outline" style="fill: none;"/>
            <path d="M360,118L415,118" class="djs-hit djs-hit-stroke"
                  style="fill: none; stroke-opacity: 0; stroke: white; stroke-width: 15px;"/>
        </g>
    </g>
    <g class="djs-group">
        <g class="djs-element djs-connection selected" data-element-id="Flow_0xh50ev" style="display: block;">
            <g class="djs-visual">
                <defs>
                    <marker id="marker-7i6hjp7p0vzvsfv3pcxh1hpw1" viewBox="0 0 20 20" refX="11" refY="10"
                            markerWidth="10" markerHeight="10" orient="auto">
                        <path d="M 1 5 L 11 10 L 1 15 Z"
                              style="stroke-linecap: round; stroke-linejoin: round; stroke: rgb(34, 36, 42); stroke-width: 1px; fill: rgb(34, 36, 42);"/>
                    </marker>
                </defs>
                <path data-corner-radius="5"
                      style="fill: none; stroke-linecap: round; stroke-linejoin: round; stroke: rgb(34, 36, 42); stroke-width: 2px; marker-end: url('#marker-7i6hjp7p0vzvsfv3pcxh1hpw1');"
                      d="M465,118L522,118"/>
            </g>
            <rect x="460" y="113" rx="4" width="67" height="10" class="djs-outline" style="fill: none;"/>
            <path d="M465,118L522,118" class="djs-hit djs-hit-stroke"
                  style="fill: none; stroke-opacity: 0; stroke: white; stroke-width: 15px;"/>
        </g>
    </g>
    <g class="djs-group">
        <g class="djs-element djs-shape selected" data-element-id="Flow_0xh50ev_label" style="display: block;"
           transform="matrix(1 0 0 1 488 100)">
            <g class="djs-visual">
                <text lineHeight="1.2" class="djs-label"
                      style="font-family: Arial, sans-serif; font-size: 11px; font-weight: normal; fill: rgb(34, 36, 42);">
                    <tspan x="0" y="9.899999999999999">Ja</tspan>
                </text>
            </g>
            <rect class="djs-hit djs-hit-all" x="0" y="0" width="12" height="14"
                  style="fill: none; stroke-opacity: 0; stroke: white; stroke-width: 15px;"/>
            <rect x="-5" y="-5" rx="4" width="22" height="24" class="djs-outline" style="fill: none;"/>
        </g>
    </g>
    <g class="djs-group">
        <g class="djs-element djs-connection selected" data-element-id="Flow_0i2gbjp" style="display: block;">
            <g class="djs-visual">
                <defs>
                    <marker id="marker-18leaqye6yjef1yg68i28fbat" viewBox="0 0 20 20" refX="11" refY="10"
                            markerWidth="10" markerHeight="10" orient="auto">
                        <path d="M 1 5 L 11 10 L 1 15 Z"
                              style="stroke-linecap: round; stroke-linejoin: round; stroke: rgb(34, 36, 42); stroke-width: 1px; fill: rgb(34, 36, 42);"/>
                    </marker>
                </defs>
                <path data-corner-radius="5"
                      style="fill: none; stroke-linecap: round; stroke-linejoin: round; stroke: rgb(34, 36, 42); stroke-width: 2px; marker-end: url('#marker-18leaqye6yjef1yg68i28fbat');"
                      d="M440,143L440,225C440,227.5,442.5,230,445,230L522,230"/>
            </g>
            <rect x="435" y="138" rx="4" width="92" height="97" class="djs-outline" style="fill: none;"/>
            <path d="M440,143L440,230L522,230" class="djs-hit djs-hit-stroke"
                  style="fill: none; stroke-opacity: 0; stroke: white; stroke-width: 15px;"/>
        </g>
    </g>
    <g class="djs-group">
        <g class="djs-element djs-shape selected" data-element-id="Flow_0i2gbjp_label" style="display: block;"
           transform="matrix(1 0 0 1 444 184)">
            <g class="djs-visual">
                <text lineHeight="1.2" class="djs-label"
                      style="font-family: Arial, sans-serif; font-size: 11px; font-weight: normal; fill: rgb(34, 36, 42);">
                    <tspan x="0" y="9.899999999999999">Nein</tspan>
                </text>
            </g>
            <rect class="djs-hit djs-hit-all" x="0" y="0" width="23" height="14"
                  style="fill: none; stroke-opacity: 0; stroke: white; stroke-width: 15px;"/>
            <rect x="-5" y="-5" rx="4" width="33" height="24" class="djs-outline" style="fill: none;"/>
        </g>
    </g>
</svg>