<?xml version="1.0" encoding="utf-8"?>
<!-- created with bpmn-js / http://bpmn.io -->
<!DOCTYPE svg PUBLIC "-//W3C//DTD SVG 1.1//EN" "http://www.w3.org/Graphics/SVG/1.1/DTD/svg11.dtd">
<svg xmlns="http://www.w3.org/2000/svg" width="820" height="530"
     viewBox="5 -95 820 530" version="1.1">
    <defs>
        <pattern id="djs-grid-pattern-353398" width="10" height="10" patternUnits="userSpaceOnUse">
            <circle cx="0.5" cy="0.5" r="0.5" style="fill: rgb(204, 204, 204);"/>
        </pattern>
    </defs>
    <g class="djs-group">
        <g class="djs-element djs-shape selected" data-element-id="Participant_1ruy9a0" style="display: block;"
           transform="matrix(1 0 0 1 90 50)">
            <g class="djs-visual">
                <rect x="0" y="0" width="730" height="258" rx="0" ry="0"
                      style="stroke-linecap: round; stroke-linejoin: round; stroke: rgb(34, 36, 42); stroke-width: 1.5px; fill: white; fill-opacity: 0.95;"/>
                <path style="fill: none; stroke-linecap: round; stroke-linejoin: round; stroke: rgb(34, 36, 42); stroke-width: 1.5px;"
                      d="M30,0L30,258"/>
                <text lineHeight="1.2" class="djs-label"
                      style="font-family: Arial, sans-serif; font-size: 12px; font-weight: normal; fill: rgb(34, 36, 42);"
                      transform="matrix(-1.83697e-16 -1 1 -1.83697e-16 0 258)">
                    <tspan x="51.9453125" y="18.6">Dienstreiseantrag bearbeiten</tspan>
                </text>
            </g>
            <rect class="djs-hit djs-hit-no-move" x="0" y="0" width="730" height="258"
                  style="fill: none; stroke-opacity: 0; stroke: white; stroke-width: 15px;"/>
            <rect class="djs-hit djs-hit-click-stroke" x="0" y="0" width="730" height="258"
                  style="fill: none; stroke-opacity: 0; stroke: white; stroke-width: 15px;"/>
            <rect class="djs-hit djs-hit-all" x="0" y="0" width="30" height="258"
                  style="fill: none; stroke-opacity: 0; stroke: white; stroke-width: 15px;"/>
            <rect x="-5" y="-5" rx="4" width="740" height="268" class="djs-outline" style="fill: none;"/>
        </g>
        <g class="djs-children">
            <g class="djs-group">
                <g class="djs-element djs-shape selected" data-element-id="StartEvent_1" style="display: block;"
                   transform="matrix(1 0 0 1 150 100)">
                    <g class="djs-visual">
                        <circle cx="18" cy="18" r="18"
                                style="stroke-linecap: round; stroke-linejoin: round; stroke: rgb(34, 36, 42); stroke-width: 2px; fill: white; fill-opacity: 0.95;"/>
                    </g>
                    <rect class="djs-hit djs-hit-all" x="0" y="0" width="36" height="36"
                          style="fill: none; stroke-opacity: 0; stroke: white; stroke-width: 15px;"/>
                    <circle cx="18" cy="18" r="23" class="djs-outline" style="fill: none;"/>
                </g>
            </g>
            <g class="djs-group">
                <g class="djs-element djs-shape selected" data-element-id="StartEvent_1_label" style="display: block;"
                   transform="matrix(1 0 0 1 131 143)">
                    <g class="djs-visual">
                        <text lineHeight="1.2" class="djs-label"
                              style="font-family: Arial, sans-serif; font-size: 11px; font-weight: normal; fill: rgb(34, 36, 42);">
                            <tspan x="4.59375" y="9.899999999999999">Dienstreisen-</tspan>
                            <tspan x="0" y="23.099999999999998">antrag erhalten</tspan>
                        </text>
                    </g>
                    <rect class="djs-hit djs-hit-all" x="0" y="0" width="74" height="27"
                          style="fill: none; stroke-opacity: 0; stroke: white; stroke-width: 15px;"/>
                    <rect x="-5" y="-5" rx="4" width="84" height="37" class="djs-outline" style="fill: none;"/>
                </g>
            </g>
            <g class="djs-group">
                <g class="djs-element djs-shape selected" data-element-id="Activity_0oc6x9a" style="display: block;"
                   transform="matrix(1 0 0 1 260 78)">
                    <g class="djs-visual">
                        <rect x="0" y="0" width="100" height="80" rx="10" ry="10"
                              style="stroke-linecap: round; stroke-linejoin: round; stroke: rgb(34, 36, 42); stroke-width: 2px; fill: white; fill-opacity: 0.95;"/>
                        <text lineHeight="1.2" class="djs-label"
                              style="font-family: Arial, sans-serif; font-size: 12px; font-weight: normal; fill: rgb(34, 36, 42);">
                            <tspan x="17.9765625" y="36.4">Über Antrag</tspan>
                            <tspan x="17.640625" y="50.8">entscheiden</tspan>
                        </text>
                        <path d="m 15,12 c 0.909,-0.845 1.594,-2.049 1.594,-3.385 0,-2.554 -1.805,-4.62199999 -4.357,-4.62199999 -2.55199998,0 -4.28799998,2.06799999 -4.28799998,4.62199999 0,1.348 0.974,2.562 1.89599998,3.405 -0.52899998,0.187 -5.669,2.097 -5.794,4.7560005 v 6.718 h 17 v -6.718 c 0,-2.2980005 -5.5279996,-4.5950005 -6.0509996,-4.7760005 zm -8,6 l 0,5.5 m 11,0 l 0,-5"
                              style="fill: white; stroke-linecap: round; stroke-linejoin: round; stroke: rgb(34, 36, 42); stroke-width: 0.5px;"/>
                        <path d="m 15,12 m 2.162,1.009 c 0,2.4470005 -2.158,4.4310005 -4.821,4.4310005 -2.66499998,0 -4.822,-1.981 -4.822,-4.4310005 "
                              style="fill: white; stroke-linecap: round; stroke-linejoin: round; stroke: rgb(34, 36, 42); stroke-width: 0.5px;"/>
                        <path d="m 15,12 m -6.9,-3.80 c 0,0 2.25099998,-2.358 4.27399998,-1.177 2.024,1.181 4.221,1.537 4.124,0.965 -0.098,-0.57 -0.117,-3.79099999 -4.191,-4.13599999 -3.57499998,0.001 -4.20799998,3.36699999 -4.20699998,4.34799999 z"
                              style="fill: rgb(34, 36, 42); stroke-linecap: round; stroke-linejoin: round; stroke: rgb(34, 36, 42); stroke-width: 0.5px;"/>
                    </g>
                    <rect class="djs-hit djs-hit-all" x="0" y="0" width="100" height="80"
                          style="fill: none; stroke-opacity: 0; stroke: white; stroke-width: 15px;"/>
                    <rect x="-5" y="-5" rx="14" width="110" height="90" class="djs-outline" style="fill: none;"/>
                </g>
            </g>
            <g class="djs-group">
                <g class="djs-element djs-shape selected" data-element-id="Activity_0640f6y" style="display: block;"
                   transform="matrix(1 0 0 1 530 78)">
                    <g class="djs-visual">
                        <rect x="0" y="0" width="100" height="80" rx="10" ry="10"
                              style="stroke-linecap: round; stroke-linejoin: round; stroke: rgb(34, 36, 42); stroke-width: 2px; fill: white; fill-opacity: 0.95;"/>
                        <text lineHeight="1.2" class="djs-label"
                              style="font-family: Arial, sans-serif; font-size: 12px; font-weight: normal; fill: rgb(34, 36, 42);">
                            <tspan x="15.9775390625" y="29.200000000000003">Annahme an</tspan>
                            <tspan x="16.244140625" y="43.6">Antragsteller</tspan>
                            <tspan x="30.3125" y="58">senden</tspan>
                        </text>
                        <circle cx="5" cy="5" r="5" transform="translate(6, 6)"
                                style="stroke-linecap: round; stroke-linejoin: round; stroke: none; stroke-width: 2px; fill: white;"/>
                        <path d="m 12,18 v -1.71335 c 0.352326,-0.0705 0.703932,-0.17838 1.047628,-0.32133 0.344416,-0.14465 0.665822,-0.32133 0.966377,-0.52145 l 1.19431,1.18005 1.567487,-1.57688 -1.195028,-1.18014 c 0.403376,-0.61394 0.683079,-1.29908 0.825447,-2.01824 l 1.622133,-0.01 v -2.2196 l -1.636514,0.01 c -0.07333,-0.35153 -0.178319,-0.70024 -0.323564,-1.04372 -0.145244,-0.34406 -0.321407,-0.6644 -0.522735,-0.96217 l 1.131035,-1.13631 -1.583305,-1.56293 -1.129598,1.13589 c -0.614052,-0.40108 -1.302883,-0.68093 -2.022633,-0.82247 l 0.0093,-1.61852 h -2.241173 l 0.0042,1.63124 c -0.353763,0.0736 -0.705369,0.17977 -1.049785,0.32371 -0.344415,0.14437 -0.665102,0.32092 -0.9635006,0.52046 l -1.1698628,-1.15823 -1.5667691,1.5792 1.1684265,1.15669 c -0.4026573,0.61283 -0.68308,1.29797 -0.8247287,2.01713 l -1.6588041,0.003 v 2.22174 l 1.6724648,-0.006 c 0.073327,0.35077 0.1797598,0.70243 0.3242851,1.04472 0.1452428,0.34448 0.3214064,0.6644 0.5227339,0.96066 l -1.1993431,1.19723 1.5840256,1.56011 1.1964668,-1.19348 c 0.6140517,0.40346 1.3028827,0.68232 2.0233517,0.82331 l 7.19e-4,1.69892 h 2.226848 z m 0.221462,-3.9957 c -1.788948,0.7502 -3.8576,-0.0928 -4.6097055,-1.87438 -0.7521065,-1.78321 0.090598,-3.84627 1.8802645,-4.59604 1.78823,-0.74936 3.856881,0.0929 4.608987,1.87437 0.752106,1.78165 -0.0906,3.84612 -1.879546,4.59605 z"
                              style="fill: white; stroke-linecap: round; stroke-linejoin: round; stroke: rgb(34, 36, 42); stroke-width: 1px;"/>
                        <circle cx="5" cy="5" r="5" transform="translate(11, 10)"
                                style="stroke-linecap: round; stroke-linejoin: round; stroke: none; stroke-width: 2px; fill: white;"/>
                        <path d="m 17,22 v -1.71335 c 0.352326,-0.0705 0.703932,-0.17838 1.047628,-0.32133 0.344416,-0.14465 0.665822,-0.32133 0.966377,-0.52145 l 1.19431,1.18005 1.567487,-1.57688 -1.195028,-1.18014 c 0.403376,-0.61394 0.683079,-1.29908 0.825447,-2.01824 l 1.622133,-0.01 v -2.2196 l -1.636514,0.01 c -0.07333,-0.35153 -0.178319,-0.70024 -0.323564,-1.04372 -0.145244,-0.34406 -0.321407,-0.6644 -0.522735,-0.96217 l 1.131035,-1.13631 -1.583305,-1.56293 -1.129598,1.13589 c -0.614052,-0.40108 -1.302883,-0.68093 -2.022633,-0.82247 l 0.0093,-1.61852 h -2.241173 l 0.0042,1.63124 c -0.353763,0.0736 -0.705369,0.17977 -1.049785,0.32371 -0.344415,0.14437 -0.665102,0.32092 -0.9635006,0.52046 l -1.1698628,-1.15823 -1.5667691,1.5792 1.1684265,1.15669 c -0.4026573,0.61283 -0.68308,1.29797 -0.8247287,2.01713 l -1.6588041,0.003 v 2.22174 l 1.6724648,-0.006 c 0.073327,0.35077 0.1797598,0.70243 0.3242851,1.04472 0.1452428,0.34448 0.3214064,0.6644 0.5227339,0.96066 l -1.1993431,1.19723 1.5840256,1.56011 1.1964668,-1.19348 c 0.6140517,0.40346 1.3028827,0.68232 2.0233517,0.82331 l 7.19e-4,1.69892 h 2.226848 z m 0.221462,-3.9957 c -1.788948,0.7502 -3.8576,-0.0928 -4.6097055,-1.87438 -0.7521065,-1.78321 0.090598,-3.84627 1.8802645,-4.59604 1.78823,-0.74936 3.856881,0.0929 4.608987,1.87437 0.752106,1.78165 -0.0906,3.84612 -1.879546,4.59605 z"
                              style="fill: white; stroke-linecap: round; stroke-linejoin: round; stroke: rgb(34, 36, 42); stroke-width: 1px;"/>
                    </g>
                    <rect class="djs-hit djs-hit-all" x="0" y="0" width="100" height="80"
                          style="fill: none; stroke-opacity: 0; stroke: white; stroke-width: 15px;"/>
                    <rect x="-5" y="-5" rx="14" width="110" height="90" class="djs-outline" style="fill: none;"/>
                </g>
            </g>
            <g class="djs-group">
                <g class="djs-element djs-shape selected" data-element-id="Activity_1djb4b2" style="display: block;"
                   transform="matrix(1 0 0 1 530 190)">
                    <g class="djs-visual">
                        <rect x="0" y="0" width="100" height="80" rx="10" ry="10"
                              style="stroke-linecap: round; stroke-linejoin: round; stroke: rgb(34, 36, 42); stroke-width: 2px; fill: white; fill-opacity: 0.95;"/>
                        <text lineHeight="1.2" class="djs-label"
                              style="font-family: Arial, sans-serif; font-size: 12px; font-weight: normal; fill: rgb(34, 36, 42);">
                            <tspan x="12.9697265625" y="29.200000000000003">Ablehnung an</tspan>
                            <tspan x="16.244140625" y="43.6">Antragsteller</tspan>
                            <tspan x="30.3125" y="58">senden</tspan>
                        </text>
                        <circle cx="5" cy="5" r="5" transform="translate(6, 6)"
                                style="stroke-linecap: round; stroke-linejoin: round; stroke: none; stroke-width: 2px; fill: white;"/>
                        <path d="m 12,18 v -1.71335 c 0.352326,-0.0705 0.703932,-0.17838 1.047628,-0.32133 0.344416,-0.14465 0.665822,-0.32133 0.966377,-0.52145 l 1.19431,1.18005 1.567487,-1.57688 -1.195028,-1.18014 c 0.403376,-0.61394 0.683079,-1.29908 0.825447,-2.01824 l 1.622133,-0.01 v -2.2196 l -1.636514,0.01 c -0.07333,-0.35153 -0.178319,-0.70024 -0.323564,-1.04372 -0.145244,-0.34406 -0.321407,-0.6644 -0.522735,-0.96217 l 1.131035,-1.13631 -1.583305,-1.56293 -1.129598,1.13589 c -0.614052,-0.40108 -1.302883,-0.68093 -2.022633,-0.82247 l 0.0093,-1.61852 h -2.241173 l 0.0042,1.63124 c -0.353763,0.0736 -0.705369,0.17977 -1.049785,0.32371 -0.344415,0.14437 -0.665102,0.32092 -0.9635006,0.52046 l -1.1698628,-1.15823 -1.5667691,1.5792 1.1684265,1.15669 c -0.4026573,0.61283 -0.68308,1.29797 -0.8247287,2.01713 l -1.6588041,0.003 v 2.22174 l 1.6724648,-0.006 c 0.073327,0.35077 0.1797598,0.70243 0.3242851,1.04472 0.1452428,0.34448 0.3214064,0.6644 0.5227339,0.96066 l -1.1993431,1.19723 1.5840256,1.56011 1.1964668,-1.19348 c 0.6140517,0.40346 1.3028827,0.68232 2.0233517,0.82331 l 7.19e-4,1.69892 h 2.226848 z m 0.221462,-3.9957 c -1.788948,0.7502 -3.8576,-0.0928 -4.6097055,-1.87438 -0.7521065,-1.78321 0.090598,-3.84627 1.8802645,-4.59604 1.78823,-0.74936 3.856881,0.0929 4.608987,1.87437 0.752106,1.78165 -0.0906,3.84612 -1.879546,4.59605 z"
                              style="fill: white; stroke-linecap: round; stroke-linejoin: round; stroke: rgb(34, 36, 42); stroke-width: 1px;"/>
                        <circle cx="5" cy="5" r="5" transform="translate(11, 10)"
                                style="stroke-linecap: round; stroke-linejoin: round; stroke: none; stroke-width: 2px; fill: white;"/>
                        <path d="m 17,22 v -1.71335 c 0.352326,-0.0705 0.703932,-0.17838 1.047628,-0.32133 0.344416,-0.14465 0.665822,-0.32133 0.966377,-0.52145 l 1.19431,1.18005 1.567487,-1.57688 -1.195028,-1.18014 c 0.403376,-0.61394 0.683079,-1.29908 0.825447,-2.01824 l 1.622133,-0.01 v -2.2196 l -1.636514,0.01 c -0.07333,-0.35153 -0.178319,-0.70024 -0.323564,-1.04372 -0.145244,-0.34406 -0.321407,-0.6644 -0.522735,-0.96217 l 1.131035,-1.13631 -1.583305,-1.56293 -1.129598,1.13589 c -0.614052,-0.40108 -1.302883,-0.68093 -2.022633,-0.82247 l 0.0093,-1.61852 h -2.241173 l 0.0042,1.63124 c -0.353763,0.0736 -0.705369,0.17977 -1.049785,0.32371 -0.344415,0.14437 -0.665102,0.32092 -0.9635006,0.52046 l -1.1698628,-1.15823 -1.5667691,1.5792 1.1684265,1.15669 c -0.4026573,0.61283 -0.68308,1.29797 -0.8247287,2.01713 l -1.6588041,0.003 v 2.22174 l 1.6724648,-0.006 c 0.073327,0.35077 0.1797598,0.70243 0.3242851,1.04472 0.1452428,0.34448 0.3214064,0.6644 0.5227339,0.96066 l -1.1993431,1.19723 1.5840256,1.56011 1.1964668,-1.19348 c 0.6140517,0.40346 1.3028827,0.68232 2.0233517,0.82331 l 7.19e-4,1.69892 h 2.226848 z m 0.221462,-3.9957 c -1.788948,0.7502 -3.8576,-0.0928 -4.6097055,-1.87438 -0.7521065,-1.78321 0.090598,-3.84627 1.8802645,-4.59604 1.78823,-0.74936 3.856881,0.0929 4.608987,1.87437 0.752106,1.78165 -0.0906,3.84612 -1.879546,4.59605 z"
                              style="fill: white; stroke-linecap: round; stroke-linejoin: round; stroke: rgb(34, 36, 42); stroke-width: 1px;"/>
                    </g>
                    <rect class="djs-hit djs-hit-all" x="0" y="0" width="100" height="80"
                          style="fill: none; stroke-opacity: 0; stroke: white; stroke-width: 15px;"/>
                    <rect x="-5" y="-5" rx="14" width="110" height="90" class="djs-outline" style="fill: none;"/>
                </g>
            </g>
            <g class="djs-group">
                <g class="djs-element djs-shape selected" data-element-id="Gateway_0ldszfm" style="display: block;"
                   transform="matrix(1 0 0 1 415 93)">
                    <g class="djs-visual">
                        <polygon points="25,0 50,25 25,50 0,25"
                                 style="stroke-linecap: round; stroke-linejoin: round; stroke: rgb(34, 36, 42); stroke-width: 2px; fill: white; fill-opacity: 0.95;"/>
                        <path d="m 16,15 7.42857142857143,9.714285714285715 -7.42857142857143,9.714285714285715 3.428571428571429,0 5.714285714285715,-7.464228571428572 5.714285714285715,7.464228571428572 3.428571428571429,0 -7.42857142857143,-9.714285714285715 7.42857142857143,-9.714285714285715 -3.428571428571429,0 -5.714285714285715,7.464228571428572 -5.714285714285715,-7.464228571428572 -3.428571428571429,0 z"
                              style="fill: rgb(34, 36, 42); stroke-linecap: round; stroke-linejoin: round; stroke: rgb(34, 36, 42); stroke-width: 1px;"/>
                    </g>
                    <rect class="djs-hit djs-hit-all" x="0" y="0" width="50" height="50"
                          style="fill: none; stroke-opacity: 0; stroke: white; stroke-width: 15px;"/>
                    <rect x="2" y="2" rx="4" width="46" height="46" class="djs-outline"
                          style="transform-box: fill-box; transform: rotate(45deg); transform-origin: center center; fill: none;"/>
                </g>
            </g>
            <g class="djs-group">
                <g class="djs-element djs-shape selected" data-element-id="Gateway_0ldszfm_label"
                   style="display: block;" transform="matrix(1 0 0 1 411 63)">
                    <g class="djs-visual">
                        <text lineHeight="1.2" class="djs-label"
                              style="font-family: Arial, sans-serif; font-size: 11px; font-weight: normal; fill: rgb(34, 36, 42);">
                            <tspan x="12.547119140625" y="9.899999999999999">Antrag</tspan>
                            <tspan x="0" y="23.099999999999998">genehmigt?</tspan>
                        </text>
                    </g>
                    <rect class="djs-hit djs-hit-all" x="0" y="0" width="58" height="27"
                          style="fill: none; stroke-opacity: 0; stroke: white; stroke-width: 15px;"/>
                    <rect x="-5" y="-5" rx="4" width="68" height="37" class="djs-outline" style="fill: none;"/>
                </g>
            </g>
            <g class="djs-group">
                <g class="djs-element djs-shape selected" data-element-id="Event_1kwiy2p" style="display: block;"
                   transform="matrix(1 0 0 1 702 100)">
                    <g class="djs-visual">
                        <circle cx="18" cy="18" r="18"
                                style="stroke-linecap: round; stroke-linejoin: round; stroke: rgb(34, 36, 42); stroke-width: 4px; fill: white; fill-opacity: 0.95;"/>
                    </g>
                    <rect class="djs-hit djs-hit-all" x="0" y="0" width="36" height="36"
                          style="fill: none; stroke-opacity: 0; stroke: white; stroke-width: 15px;"/>
                    <circle cx="18" cy="18" r="24" class="djs-outline" style="fill: none;"/>
                </g>
            </g>
            <g class="djs-group">
                <g class="djs-element djs-shape selected" data-element-id="Event_1kwiy2p_label" style="display: block;"
                   transform="matrix(1 0 0 1 690 143)">
                    <g class="djs-visual">
                        <text lineHeight="1.2" class="djs-label"
                              style="font-family: Arial, sans-serif; font-size: 11px; font-weight: normal; fill: rgb(34, 36, 42);">
                            <tspan x="0" y="9.899999999999999">Antrag wurde</tspan>
                            <tspan x="7.023193359375" y="23.099999999999998">genehmigt</tspan>
                        </text>
                    </g>
                    <rect class="djs-hit djs-hit-all" x="0" y="0" width="66" height="27"
                          style="fill: none; stroke-opacity: 0; stroke: white; stroke-width: 15px;"/>
                    <rect x="-5" y="-5" rx="4" width="76" height="37" class="djs-outline" style="fill: none;"/>
                </g>
            </g>
            <g class="djs-group">
                <g class="djs-element djs-shape selected" data-element-id="Event_1no0yue" style="display: block;"
                   transform="matrix(1 0 0 1 702 212)">
                    <g class="djs-visual">
                        <circle cx="18" cy="18" r="18"
                                style="stroke-linecap: round; stroke-linejoin: round; stroke: rgb(34, 36, 42); stroke-width: 4px; fill: white; fill-opacity: 0.95;"/>
                    </g>
                    <rect class="djs-hit djs-hit-all" x="0" y="0" width="36" height="36"
                          style="fill: none; stroke-opacity: 0; stroke: white; stroke-width: 15px;"/>
                    <circle cx="18" cy="18" r="24" class="djs-outline" style="fill: none;"/>
                </g>
            </g>
            <g class="djs-group">
                <g class="djs-element djs-shape selected" data-element-id="Event_1no0yue_label" style="display: block;"
                   transform="matrix(1 0 0 1 690 255)">
                    <g class="djs-visual">
                        <text lineHeight="1.2" class="djs-label"
                              style="font-family: Arial, sans-serif; font-size: 11px; font-weight: normal; fill: rgb(34, 36, 42);">
                            <tspan x="0" y="9.899999999999999">Antrag wurde</tspan>
                            <tspan x="8.546630859375" y="23.099999999999998">abgelehnt</tspan>
                        </text>
                    </g>
                    <rect class="djs-hit djs-hit-all" x="0" y="0" width="66" height="27"
                          style="fill: none; stroke-opacity: 0; stroke: white; stroke-width: 15px;"/>
                    <rect x="-5" y="-5" rx="4" width="76" height="37" class="djs-outline" style="fill: none;"/>
                </g>
            </g>
            <g class="djs-group">
                <g class="djs-element djs-connection selected" data-element-id="Flow_03ke35t" style="display: block;">
                    <g class="djs-visual">
                        <defs>
                            <marker id="marker-cur1c9ur8c1urh2z2xmojfslq" viewBox="0 0 20 20" refX="11" refY="10"
                                    markerWidth="10" markerHeight="10" orient="auto">
                                <path d="M 1 5 L 11 10 L 1 15 Z"
                                      style="stroke-linecap: round; stroke-linejoin: round; stroke: rgb(34, 36, 42); stroke-width: 1px; fill: rgb(34, 36, 42);"/>
                            </marker>
                        </defs>
                        <path data-corner-radius="5"
                              style="fill: none; stroke-linecap: round; stroke-linejoin: round; stroke: rgb(34, 36, 42); stroke-width: 2px; marker-end: url('#marker-cur1c9ur8c1urh2z2xmojfslq');"
                              d="M186,118L260,118"/>
                    </g>
                    <rect x="181" y="113" rx="4" width="84" height="10" class="djs-outline" style="fill: none;"/>
                    <path d="M186,118L260,118" class="djs-hit djs-hit-stroke"
                          style="fill: none; stroke-opacity: 0; stroke: white; stroke-width: 15px;"/>
                </g>
            </g>
            <g class="djs-group">
                <g class="djs-element djs-connection selected" data-element-id="Flow_0iu6vpj" style="display: block;">
                    <g class="djs-visual">
                        <defs>
                            <marker id="marker-8shjls7y7i63p2ptxspa0ixh4" viewBox="0 0 20 20" refX="11" refY="10"
                                    markerWidth="10" markerHeight="10" orient="auto">
                                <path d="M 1 5 L 11 10 L 1 15 Z"
                                      style="stroke-linecap: round; stroke-linejoin: round; stroke: rgb(34, 36, 42); stroke-width: 1px; fill: rgb(34, 36, 42);"/>
                            </marker>
                        </defs>
                        <path data-corner-radius="5"
                              style="fill: none; stroke-linecap: round; stroke-linejoin: round; stroke: rgb(34, 36, 42); stroke-width: 2px; marker-end: url('#marker-8shjls7y7i63p2ptxspa0ixh4');"
                              d="M440,143L440,225C440,227.5,442.5,230,445,230L530,230"/>
                    </g>
                    <rect x="435" y="138" rx="4" width="100" height="97" class="djs-outline" style="fill: none;"/>
                    <path d="M440,143L440,230L530,230" class="djs-hit djs-hit-stroke"
                          style="fill: none; stroke-opacity: 0; stroke: white; stroke-width: 15px;"/>
                </g>
            </g>
            <g class="djs-group">
                <g class="djs-element djs-shape selected" data-element-id="Flow_0iu6vpj_label" style="display: block;"
                   transform="matrix(1 0 0 1 444 184)">
                    <g class="djs-visual">
                        <text lineHeight="1.2" class="djs-label"
                              style="font-family: Arial, sans-serif; font-size: 11px; font-weight: normal; fill: rgb(34, 36, 42);">
                            <tspan x="0" y="9.899999999999999">Nein</tspan>
                        </text>
                    </g>
                    <rect class="djs-hit djs-hit-all" x="0" y="0" width="23" height="14"
                          style="fill: none; stroke-opacity: 0; stroke: white; stroke-width: 15px;"/>
                    <rect x="-5" y="-5" rx="4" width="33" height="24" class="djs-outline" style="fill: none;"/>
                </g>
            </g>
            <g class="djs-group">
                <g class="djs-element djs-connection selected" data-element-id="Flow_0dzcdpg" style="display: block;">
                    <g class="djs-visual">
                        <defs>
                            <marker id="marker-77t86wvc62o45ugqwaikxrmyc" viewBox="0 0 20 20" refX="11" refY="10"
                                    markerWidth="10" markerHeight="10" orient="auto">
                                <path d="M 1 5 L 11 10 L 1 15 Z"
                                      style="stroke-linecap: round; stroke-linejoin: round; stroke: rgb(34, 36, 42); stroke-width: 1px; fill: rgb(34, 36, 42);"/>
                            </marker>
                        </defs>
                        <path data-corner-radius="5"
                              style="fill: none; stroke-linecap: round; stroke-linejoin: round; stroke: rgb(34, 36, 42); stroke-width: 2px; marker-end: url('#marker-77t86wvc62o45ugqwaikxrmyc');"
                              d="M465,118L530,118"/>
                    </g>
                    <rect x="460" y="113" rx="4" width="75" height="10" class="djs-outline" style="fill: none;"/>
                    <path d="M465,118L530,118" class="djs-hit djs-hit-stroke"
                          style="fill: none; stroke-opacity: 0; stroke: white; stroke-width: 15px;"/>
                </g>
            </g>
            <g class="djs-group">
                <g class="djs-element djs-shape selected" data-element-id="Flow_0dzcdpg_label" style="display: block;"
                   transform="matrix(1 0 0 1 504 100)">
                    <g class="djs-visual">
                        <text lineHeight="1.2" class="djs-label"
                              style="font-family: Arial, sans-serif; font-size: 11px; font-weight: normal; fill: rgb(34, 36, 42);">
                            <tspan x="0" y="9.899999999999999">Ja</tspan>
                        </text>
                    </g>
                    <rect class="djs-hit djs-hit-all" x="0" y="0" width="12" height="14"
                          style="fill: none; stroke-opacity: 0; stroke: white; stroke-width: 15px;"/>
                    <rect x="-5" y="-5" rx="4" width="22" height="24" class="djs-outline" style="fill: none;"/>
                </g>
            </g>
            <g class="djs-group">
                <g class="djs-element djs-connection selected" data-element-id="Flow_0dse54q" style="display: block;">
                    <g class="djs-visual">
                        <defs>
                            <marker id="marker-dytxytdf8gdh4al3uij6gjkym" viewBox="0 0 20 20" refX="11" refY="10"
                                    markerWidth="10" markerHeight="10" orient="auto">
                                <path d="M 1 5 L 11 10 L 1 15 Z"
                                      style="stroke-linecap: round; stroke-linejoin: round; stroke: rgb(34, 36, 42); stroke-width: 1px; fill: rgb(34, 36, 42);"/>
                            </marker>
                        </defs>
                        <path data-corner-radius="5"
                              style="fill: none; stroke-linecap: round; stroke-linejoin: round; stroke: rgb(34, 36, 42); stroke-width: 2px; marker-end: url('#marker-dytxytdf8gdh4al3uij6gjkym');"
                              d="M360,118L415,118"/>
                    </g>
                    <rect x="355" y="113" rx="4" width="65" height="10" class="djs-outline" style="fill: none;"/>
                    <path d="M360,118L415,118" class="djs-hit djs-hit-stroke"
                          style="fill: none; stroke-opacity: 0; stroke: white; stroke-width: 15px;"/>
                </g>
            </g>
            <g class="djs-group">
                <g class="djs-element djs-connection selected" data-element-id="Flow_1p2eot0" style="display: block;">
                    <g class="djs-visual">
                        <defs>
                            <marker id="marker-e0aa1wlbzwu0za4qs5cxtvy18" viewBox="0 0 20 20" refX="11" refY="10"
                                    markerWidth="10" markerHeight="10" orient="auto">
                                <path d="M 1 5 L 11 10 L 1 15 Z"
                                      style="stroke-linecap: round; stroke-linejoin: round; stroke: rgb(34, 36, 42); stroke-width: 1px; fill: rgb(34, 36, 42);"/>
                            </marker>
                        </defs>
                        <path data-corner-radius="5"
                              style="fill: none; stroke-linecap: round; stroke-linejoin: round; stroke: rgb(34, 36, 42); stroke-width: 2px; marker-end: url('#marker-e0aa1wlbzwu0za4qs5cxtvy18');"
                              d="M630,118L702,118"/>
                    </g>
                    <rect x="625" y="113" rx="4" width="82" height="10" class="djs-outline" style="fill: none;"/>
                    <path d="M630,118L702,118" class="djs-hit djs-hit-stroke"
                          style="fill: none; stroke-opacity: 0; stroke: white; stroke-width: 15px;"/>
                </g>
            </g>
            <g class="djs-group">
                <g class="djs-element djs-connection selected" data-element-id="Flow_0u5qa15" style="display: block;">
                    <g class="djs-visual">
                        <defs>
                            <marker id="marker-83ltjefse4kxwfrd8duz2vkzu" viewBox="0 0 20 20" refX="11" refY="10"
                                    markerWidth="10" markerHeight="10" orient="auto">
                                <path d="M 1 5 L 11 10 L 1 15 Z"
                                      style="stroke-linecap: round; stroke-linejoin: round; stroke: rgb(34, 36, 42); stroke-width: 1px; fill: rgb(34, 36, 42);"/>
                            </marker>
                        </defs>
                        <path data-corner-radius="5"
                              style="fill: none; stroke-linecap: round; stroke-linejoin: round; stroke: rgb(34, 36, 42); stroke-width: 2px; marker-end: url('#marker-83ltjefse4kxwfrd8duz2vkzu');"
                              d="M630,230L702,230"/>
                    </g>
                    <rect x="625" y="225" rx="4" width="82" height="10" class="djs-outline" style="fill: none;"/>
                    <path d="M630,230L702,230" class="djs-hit djs-hit-stroke"
                          style="fill: none; stroke-opacity: 0; stroke: white; stroke-width: 15px;"/>
                </g>
            </g>
        </g>
    </g>
    <g class="djs-group">
        <g class="djs-element djs-shape selected" data-element-id="Participant_1n04gb1" style="display: block;"
           transform="matrix(1 0 0 1 10 -90)">
            <g class="djs-visual">
                <rect x="0" y="0" width="300" height="60" rx="0" ry="0"
                      style="stroke-linecap: round; stroke-linejoin: round; stroke: rgb(34, 36, 42); stroke-width: 1.5px; fill: white; fill-opacity: 0.95;"/>
                <text lineHeight="1.2" class="djs-label"
                      style="font-family: Arial, sans-serif; font-size: 12px; font-weight: normal; fill: rgb(34, 36, 42);">
                    <tspan x="118.328125" y="33.6">Formcentric</tspan>
                </text>
            </g>
            <rect class="djs-hit djs-hit-all" x="0" y="0" width="300" height="60"
                  style="fill: none; stroke-opacity: 0; stroke: white; stroke-width: 15px;"/>
            <rect x="-5" y="-5" rx="4" width="310" height="70" class="djs-outline" style="fill: none;"/>
        </g>
    </g>
    <g class="djs-group">
        <g class="djs-element djs-shape selected" data-element-id="Participant_06bmgja" style="display: block;"
           transform="matrix(1 0 0 1 180 370)">
            <g class="djs-visual">
                <rect x="0" y="0" width="430" height="60" rx="0" ry="0"
                      style="stroke-linecap: round; stroke-linejoin: round; stroke: rgb(34, 36, 42); stroke-width: 1.5px; fill: white; fill-opacity: 0.95;"/>
                <text lineHeight="1.2" class="djs-label"
                      style="font-family: Arial, sans-serif; font-size: 12px; font-weight: normal; fill: rgb(34, 36, 42);">
                    <tspan x="180.328125" y="33.6">JSON Forms</tspan>
                </text>
            </g>
            <rect class="djs-hit djs-hit-all" x="0" y="0" width="430" height="60"
                  style="fill: none; stroke-opacity: 0; stroke: white; stroke-width: 15px;"/>
            <rect x="-5" y="-5" rx="4" width="440" height="70" class="djs-outline" style="fill: none;"/>
        </g>
    </g>
    <g class="djs-group">
        <g class="djs-element djs-connection selected" data-element-id="Flow_1bz1zuq" style="display: block;">
            <g class="djs-visual">
                <defs>
                    <marker id="marker-c7y64j2e8f3i76q1trvqzdegn" viewBox="0 0 20 20" refX="8.5" refY="5"
                            markerWidth="20" markerHeight="20" orient="auto">
                        <path d="m 1 5 l 0 -3 l 7 3 l -7 3 z"
                              style="stroke-linecap: round; stroke-linejoin: round; stroke: rgb(34, 36, 42); stroke-width: 1px; fill: white; stroke-dasharray: 10000, 1;"/>
                    </marker>
                    <marker id="marker-42ng1kvhwd7kcdpnl4f6rehvn" viewBox="0 0 20 20" refX="6" refY="6" markerWidth="20"
                            markerHeight="20" orient="auto">
                        <circle cx="6" cy="6" r="3.5"
                                style="stroke-linecap: round; stroke-linejoin: round; stroke: rgb(34, 36, 42); stroke-width: 1px; fill: white; stroke-dasharray: 10000, 1;"/>
                    </marker>
                </defs>
                <path data-corner-radius="5"
                      style="fill: none; stroke-linecap: round; stroke-linejoin: round; stroke: rgb(34, 36, 42); stroke-width: 1.5px; marker-end: url('#marker-c7y64j2e8f3i76q1trvqzdegn'); marker-start: url('#marker-42ng1kvhwd7kcdpnl4f6rehvn'); stroke-dasharray: 10, 11;"
                      d="M168,-30L168,100"/>
            </g>
            <rect x="163" y="-35" rx="4" width="10" height="140" class="djs-outline" style="fill: none;"/>
            <path d="M168,-30L168,100" class="djs-hit djs-hit-stroke"
                  style="fill: none; stroke-opacity: 0; stroke: white; stroke-width: 15px;"/>
        </g>
    </g>
    <g class="djs-group">
        <g class="djs-element djs-connection selected" data-element-id="Flow_13ythul" style="display: block;">
            <g class="djs-visual">
                <defs>
                    <marker id="marker-bux751noh2dlyo6hfygv65a2a" viewBox="0 0 20 20" refX="8.5" refY="5"
                            markerWidth="20" markerHeight="20" orient="auto">
                        <path d="m 1 5 l 0 -3 l 7 3 l -7 3 z"
                              style="stroke-linecap: round; stroke-linejoin: round; stroke: rgb(34, 36, 42); stroke-width: 1px; fill: white; stroke-dasharray: 10000, 1;"/>
                    </marker>
                    <marker id="marker-b27an7c3zi9hcs5codhmo1l9l" viewBox="0 0 20 20" refX="6" refY="6" markerWidth="20"
                            markerHeight="20" orient="auto">
                        <circle cx="6" cy="6" r="3.5"
                                style="stroke-linecap: round; stroke-linejoin: round; stroke: rgb(34, 36, 42); stroke-width: 1px; fill: white; stroke-dasharray: 10000, 1;"/>
                    </marker>
                </defs>
                <path data-corner-radius="5"
                      style="fill: none; stroke-linecap: round; stroke-linejoin: round; stroke: rgb(34, 36, 42); stroke-width: 1.5px; marker-end: url('#marker-bux751noh2dlyo6hfygv65a2a'); marker-start: url('#marker-b27an7c3zi9hcs5codhmo1l9l'); stroke-dasharray: 10, 11;"
                      d="M310,370L310,158"/>
            </g>
            <rect x="305" y="153" rx="4" width="10" height="222" class="djs-outline" style="fill: none;"/>
            <path d="M310,370L310,158" class="djs-hit djs-hit-stroke"
                  style="fill: none; stroke-opacity: 0; stroke: white; stroke-width: 15px;"/>
        </g>
    </g>
</svg>